# xmcd
#
# Track frame offsets: 
#        188
#        94838
#        132180
#        181013
#        218738
#        246863
#
# Disc length: 3656 seconds
#
# Revision: 6
# Processed by: cddbd v1.5.2PL0 Copyright (c) Steve Scherf et al.
# Submitted via: ExactAudioCopyFreeDBPlugin 1.0
#
DISCID=4a0e4606
DTITLE=Ludwig Van Beethoven - Concerto pour piano No5 - Sonate pour pi
DTITLE=ano No17
DYEAR=1990
DGENRE=Classical
TTITLE0=Concerto pour piano et orchestre No5. en mi bémol majeur op.73
TTITLE0=Allegro
TTITLE1=Concerto pour piano et orchestre No5. en mi bémol majeur op.73
TTITLE1=Adagio un poco mosso
TTITLE2=Concerto pour piano et orchestre No5. en mi bémol majeur op.73
TTITLE2=Rondo - Allegro
TTITLE3="La Tempête" Sonate pour piano No17 en ré mineur  op.31,2 - La
TTITLE3=rgo, Allegro
TTITLE4="La Tempête" Sonate pour piano No17 en ré mineur  op.31,2 - Ad
TTITLE4=agio
TTITLE5="La Tempête" Sonate pour piano No17 en ré mineur  op.31,2 - Al
TTITLE5=legretto
EXTD=YEAR: 1990
EXTT0=
EXTT1=
EXTT2=
EXTT3=
EXTT4=
EXTT5=
PLAYORDER=
